<?xml version="1.0" encoding="UTF-8" standalone="no"?>
<!-- Created with Inkscape (http://www.inkscape.org/) -->

<svg
   xmlns:dc="http://purl.org/dc/elements/1.1/"
   xmlns:cc="http://creativecommons.org/ns#"
   xmlns:rdf="http://www.w3.org/1999/02/22-rdf-syntax-ns#"
   xmlns:svg="http://www.w3.org/2000/svg"
   xmlns="http://www.w3.org/2000/svg"
   xmlns:sodipodi="http://sodipodi.sourceforge.net/DTD/sodipodi-0.dtd"
   xmlns:inkscape="http://www.inkscape.org/namespaces/inkscape"
   width="342.76132mm"
   height="405.17874mm"
   viewBox="0 0 342.76132 405.17874"
   version="1.1"
   id="svg6935"
   inkscape:version="0.92.3 (2405546, 2018-03-11)"
   sodipodi:docname="android_logo.svg">
  <defs
     id="defs6929" />
  <sodipodi:namedview
     id="base"
     pagecolor="#ffffff"
     bordercolor="#666666"
     borderopacity="1.0"
     inkscape:pageopacity="0.0"
     inkscape:pageshadow="2"
     inkscape:zoom="0.175"
     inkscape:cx="1830.2766"
     inkscape:cy="209.47793"
     inkscape:document-units="mm"
     inkscape:current-layer="layer1"
     showgrid="false"
     inkscape:window-width="1920"
     inkscape:window-height="1013"
     inkscape:window-x="-9"
     inkscape:window-y="-9"
     inkscape:window-maximized="1" />
  <metadata
     id="metadata6932">
    <rdf:RDF>
      <cc:Work
         rdf:about="">
        <dc:format>image/svg+xml</dc:format>
        <dc:type
           rdf:resource="http://purl.org/dc/dcmitype/StillImage" />
        <dc:title></dc:title>
      </cc:Work>
    </rdf:RDF>
  </metadata>
  <g
     inkscape:label="Layer 1"
     inkscape:groupmode="layer"
     id="layer1"
     transform="translate(496.44018,44.684604)">
    <path
       style="fill:#e771d8;fill-opacity:0.97647059;stroke-width:0.79159576"
       d="m -373.74268,359.42919 c -7.0344,-2.22422 -12.0785,-6.49081 -15.5376,-13.14112 -1.808,-3.47548 -1.8661,-4.24878 -2.3746,-31.66358 -0.2853,-15.45611 -0.5588,-29.5851 -0.6057,-31.39821 l -0.081,-3.2961 -12.8635,-0.27512 c -12.0891,-0.25982 -13.1029,-0.40245 -16.8372,-2.36384 -5.4918,-2.88446 -10.8619,-8.86026 -12.9297,-14.38674 -1.698,-4.53917 -1.699,-4.58094 -1.699,-88.0251 V 91.395456 h 111.6145 111.61551 v 83.483924 c 0,83.44416 0,83.48593 -1.699,88.0251 -2.06841,5.52648 -7.43842,11.50228 -12.93032,14.38674 -3.7342,1.96139 -4.74749,2.10352 -16.83709,2.36384 l -12.8631,0.27512 v 27.04399 c 0,35.02731 -0.651,38.89811 -7.6345,45.95291 -12.7377,12.86711 -33.5062,8.5236 -41.2039,-8.61819 -1.2742,-2.8366 -1.4479,-6.36252 -1.6701,-33.84101 l -0.2495,-30.67372 h -16.5229 -16.5219 l -0.2496,30.67372 c -0.2241,27.47849 -0.3973,31.00441 -1.6705,33.84101 -5.5992,12.46909 -18.3956,18.8668 -30.2417,15.1203 z m -107.0382,-120.09372 c -5.3109,-2.04184 -10.8313,-7.42262 -13.537,-13.19567 l -2.1223,-4.52794 v -57.78643 -57.78696 l 2.0994,-4.47701 c 2.4769,-5.283474 7.2245,-10.146134 12.3923,-12.691314 5.4119,-2.66543 15.6186,-2.62366 20.9209,0.0866 5.4557,2.78769 10.5995,8.28409 12.4947,13.348494 1.5685,4.19275 1.6017,5.67014 1.3892,62.9879 l -0.2191,58.69426 -1.8431,3.45356 c -6.0522,11.34332 -19.6687,16.4724 -31.5765,11.89503 z m 293.98289,0.44323 c -6.73788,-2.47081 -12.96789,-8.77316 -15.14128,-15.31495 -1.10749,-3.33537 -1.2292,-10.61838 -1.03611,-62.28842 0.2191,-58.31423 0.2241,-58.5231 1.93432,-61.71937 2.33629,-4.364434 7.52139,-9.395724 11.8355,-11.482914 1.96228,-0.95062 5.79739,-1.90686 8.52249,-2.12591 10.6408,-0.85435 19.6691,4.25845 24.36529,13.797324 l 2.63891,5.36038 v 57.80276 57.80325 l -2.12292,4.52795 c -2.7795,5.93045 -8.21679,11.15994 -13.76108,13.23438 -5.09392,1.90584 -12.66031,2.08364 -17.23512,0.40756 z M -437.22988,74.572036 c 1.8055,-30.875476 21.2124,-60.935328 50.7236,-78.5713278 3.3363,-1.993459 5.5315,-3.812181 5.3761,-4.45306 -0.1478,-0.59555 -3.9971,-7.9544992 -8.5607,-16.3527102 -4.8617,-8.947399 -8.1944,-15.961449 -8.0487,-16.939069 0.3464,-2.33225 2.6272,-3.64866 4.4046,-2.54366 0.7622,0.47378 5.3731,8.13075 10.2475,17.015479 5.0634,9.23218 9.3035,16.0934 9.8945,16.012911 0.5685,-0.0764 4.5957,-1.380601 8.9494,-2.896711 24.9904,-8.69879 53.3772,-8.69879 78.3675,0 4.3543,1.51611 8.3815,2.81927 8.95,2.896711 0.591,0.0815 4.8306,-6.780731 9.8955,-16.012911 4.8733,-8.884729 9.4838,-16.541699 10.2459,-17.015479 1.778,-1.105 4.0573,0.21396 4.4047,2.54366 0.1478,0.97762 -3.1871,7.99167 -8.0487,16.939069 -4.5636,8.398211 -8.4155,15.7515612 -8.5602,16.3404712 -0.1529,0.629168 2.2736,2.616009 5.8846,4.814271 21.9698,13.376007 37.96949,33.0502888 45.74001,56.2433278 2.46118,7.346217 4.69868,19.863798 4.70678,26.332738 v 3.76023 h -112.52639 -112.5258 z m 65.5296,-34.399826 c 2.4983,-1.475862 4.6884,-5.342041 4.6833,-8.268301 0,-2.953779 -2.9482,-6.995721 -6.0339,-8.28512 -3.6176,-1.51102 -6.7726,-0.829381 -9.6983,2.096881 -7.6101,7.610099 1.7978,19.92086 11.0489,14.45654 z m 103.5514,-0.67909 c 2.6538,-2.232901 4.0817,-6.112841 3.4556,-9.389092 -0.5272,-2.758638 -4.3369,-6.526498 -7.2448,-7.16535 -4.878,-1.07137 -11.1558,3.969601 -11.164,8.965231 0,7.74918 9.2046,12.42691 14.9532,7.589211 z"
       id="path1237-0-9-3-9-3"
       inkscape:connector-curvature="0"
       inkscape:export-filename="C:\Users\Caitl\Desktop\Portfilio\android_logo.png"
       inkscape:export-xdpi="96"
       inkscape:export-ydpi="96" />
  </g>
</svg>
